<svg width="144" height="40" viewBox="0 0 144 40" fill="none" xmlns="http://www.w3.org/2000/svg">
<path d="M40.208 28V11.2H47.288C48.28 11.2 49.168 11.44 49.952 11.92C50.752 12.384 51.384 13.024 51.848 13.84C52.328 14.64 52.568 15.544 52.568 16.552C52.568 17.592 52.328 18.528 51.848 19.36C51.384 20.176 50.752 20.832 49.952 21.328C49.168 21.808 48.28 22.048 47.288 22.048H43.664V28H40.208ZM43.64 18.904H46.928C47.52 18.904 48.016 18.688 48.416 18.256C48.832 17.808 49.04 17.256 49.04 16.6C49.04 15.944 48.832 15.408 48.416 14.992C48.016 14.56 47.52 14.344 46.928 14.344H43.64V18.904Z" fill="#494D4B"/>
<path d="M60.959 28.24C59.663 28.24 58.511 27.96 57.503 27.4C56.495 26.824 55.703 26.04 55.127 25.048C54.551 24.056 54.263 22.92 54.263 21.64C54.263 20.376 54.551 19.248 55.127 18.256C55.703 17.264 56.495 16.488 57.503 15.928C58.511 15.352 59.663 15.064 60.959 15.064C62.223 15.064 63.359 15.352 64.367 15.928C65.375 16.488 66.167 17.264 66.743 18.256C67.319 19.248 67.607 20.376 67.607 21.64C67.607 22.92 67.319 24.056 66.743 25.048C66.167 26.04 65.375 26.824 64.367 27.4C63.359 27.96 62.223 28.24 60.959 28.24ZM60.959 25.384C61.599 25.384 62.175 25.224 62.687 24.904C63.199 24.568 63.591 24.12 63.863 23.56C64.151 23 64.295 22.36 64.295 21.64C64.295 20.92 64.151 20.28 63.863 19.72C63.591 19.16 63.199 18.72 62.687 18.4C62.175 18.08 61.599 17.92 60.959 17.92C60.303 17.92 59.719 18.08 59.207 18.4C58.695 18.72 58.295 19.16 58.007 19.72C57.719 20.28 57.575 20.92 57.575 21.64C57.575 22.36 57.719 23 58.007 23.56C58.295 24.12 58.695 24.568 59.207 24.904C59.719 25.224 60.303 25.384 60.959 25.384Z" fill="#494D4B"/>
<path d="M75.2122 28.24C74.0922 28.24 73.0922 27.96 72.2122 27.4C71.3322 26.824 70.6362 26.04 70.1242 25.048C69.6282 24.056 69.3802 22.928 69.3802 21.664C69.3802 20.384 69.6282 19.248 70.1242 18.256C70.6362 17.264 71.3322 16.488 72.2122 15.928C73.0922 15.352 74.0922 15.064 75.2122 15.064C75.9802 15.064 76.7082 15.216 77.3962 15.52C78.1002 15.824 78.6682 16.216 79.1002 16.696V10.24H82.3882V28H79.2682L79.2202 26.488C78.8042 26.984 78.2362 27.4 77.5162 27.736C76.7962 28.072 76.0282 28.24 75.2122 28.24ZM75.9322 25.504C76.9082 25.504 77.7002 25.152 78.3082 24.448C78.9162 23.728 79.2202 22.8 79.2202 21.664C79.2202 20.512 78.9162 19.584 78.3082 18.88C77.7002 18.16 76.9082 17.8 75.9322 17.8C74.9562 17.8 74.1642 18.16 73.5562 18.88C72.9482 19.584 72.6442 20.512 72.6442 21.664C72.6442 22.8 72.9482 23.728 73.5562 24.448C74.1642 25.152 74.9562 25.504 75.9322 25.504Z" fill="#494D4B"/>
<path d="M91.2078 28.24C90.0078 28.24 88.9278 27.952 87.9678 27.376C87.0238 26.8 86.2718 26.016 85.7118 25.024C85.1678 24.032 84.8958 22.904 84.8958 21.64C84.8958 20.392 85.1678 19.272 85.7118 18.28C86.2718 17.288 87.0238 16.504 87.9678 15.928C88.9278 15.352 90.0078 15.064 91.2078 15.064C92.3438 15.064 93.3758 15.272 94.3038 15.688C95.2478 16.104 95.9838 16.688 96.5118 17.44L94.7118 19.6C94.3758 19.136 93.9118 18.744 93.3198 18.424C92.7278 18.088 92.1278 17.92 91.5198 17.92C90.8478 17.92 90.2478 18.088 89.7198 18.424C89.2078 18.744 88.7998 19.184 88.4958 19.744C88.2078 20.304 88.0638 20.936 88.0638 21.64C88.0638 22.344 88.2158 22.976 88.5198 23.536C88.8238 24.096 89.2398 24.544 89.7678 24.88C90.2958 25.2 90.8878 25.36 91.5438 25.36C92.1678 25.36 92.7438 25.224 93.2718 24.952C93.7998 24.664 94.2798 24.264 94.7118 23.752L96.5118 25.912C95.9678 26.616 95.2158 27.184 94.2558 27.616C93.2958 28.032 92.2798 28.24 91.2078 28.24Z" fill="#494D4B"/>
<path d="M103.472 28.24C102.416 28.24 101.464 27.952 100.616 27.376C99.7682 26.8 99.0882 26.016 98.5762 25.024C98.0802 24.032 97.8322 22.904 97.8322 21.64C97.8322 20.344 98.0802 19.208 98.5762 18.232C99.0882 17.24 99.7762 16.464 100.64 15.904C101.52 15.344 102.512 15.064 103.616 15.064C104.512 15.064 105.296 15.248 105.968 15.616C106.64 15.968 107.176 16.432 107.576 17.008V15.328H110.84V28H107.552V26.296C107.104 26.856 106.52 27.32 105.8 27.688C105.096 28.056 104.32 28.24 103.472 28.24ZM104.36 25.384C105.336 25.384 106.128 25.04 106.736 24.352C107.344 23.664 107.648 22.76 107.648 21.64C107.648 20.52 107.344 19.616 106.736 18.928C106.128 18.24 105.336 17.896 104.36 17.896C103.4 17.896 102.616 18.24 102.008 18.928C101.416 19.616 101.12 20.52 101.12 21.64C101.12 22.76 101.416 23.664 102.008 24.352C102.616 25.04 103.4 25.384 104.36 25.384Z" fill="#494D4B"/>
<path d="M118.531 28.24C117.363 28.24 116.323 28.048 115.411 27.664C114.499 27.28 113.763 26.736 113.203 26.032L115.267 24.28C115.747 24.808 116.291 25.192 116.899 25.432C117.507 25.656 118.123 25.768 118.747 25.768C119.243 25.768 119.643 25.656 119.947 25.432C120.251 25.208 120.403 24.896 120.403 24.496C120.403 24.144 120.259 23.864 119.971 23.656C119.683 23.464 118.995 23.224 117.907 22.936C116.291 22.52 115.147 21.952 114.475 21.232C113.883 20.592 113.587 19.8 113.587 18.856C113.587 18.104 113.811 17.448 114.259 16.888C114.707 16.312 115.299 15.864 116.035 15.544C116.771 15.224 117.571 15.064 118.435 15.064C119.427 15.064 120.363 15.24 121.243 15.592C122.123 15.944 122.859 16.424 123.451 17.032L121.675 18.976C121.227 18.56 120.707 18.216 120.115 17.944C119.539 17.656 119.003 17.512 118.507 17.512C117.355 17.512 116.779 17.912 116.779 18.712C116.795 19.096 116.971 19.4 117.307 19.624C117.627 19.848 118.355 20.112 119.491 20.416C121.011 20.816 122.083 21.344 122.707 22C123.251 22.56 123.523 23.304 123.523 24.232C123.523 25 123.299 25.688 122.851 26.296C122.419 26.904 121.827 27.384 121.075 27.736C120.323 28.072 119.475 28.24 118.531 28.24Z" fill="#494D4B"/>
<path d="M127.249 28V18.28H124.849V15.328H127.249V12.088H130.513V15.328H133.177V18.28H130.513V28H127.249Z" fill="#494D4B"/>
<path d="M135.376 28V15.328H138.544L138.592 17.416C139.008 16.728 139.552 16.168 140.224 15.736C140.912 15.288 141.632 15.064 142.384 15.064C142.672 15.064 142.936 15.088 143.176 15.136C143.432 15.168 143.648 15.216 143.824 15.28L142.936 18.88C142.76 18.784 142.536 18.704 142.264 18.64C141.992 18.576 141.72 18.544 141.448 18.544C140.664 18.544 140 18.816 139.456 19.36C138.928 19.888 138.664 20.56 138.664 21.376V28H135.376Z" fill="#494D4B"/>
<path d="M10.5393 26.9123H11.0049C13.1517 26.9123 15.2105 26.0595 16.7284 24.5415C18.2464 23.0235 19.0992 20.9647 19.0992 18.818V16.4389H15.9282V14.8852H19.0992V13.2563H15.9282V11.7034H19.0992V10.0745H15.9282V8.52071H19.0992V8.0943C19.0992 5.94755 18.2464 3.88874 16.7284 2.37076C15.2105 0.852789 13.1517 0 11.0049 0L10.5393 0C8.39254 0 6.33372 0.852789 4.81575 2.37076C3.29777 3.88874 2.44498 5.94755 2.44498 8.0943V8.52071H5.60259V10.0745H2.44582V11.7034H5.60259V13.2563H2.44582V14.8852H5.60259V16.4389H2.44582V18.8188C2.44604 20.9653 3.29881 23.0237 4.81658 24.5415C6.33435 26.0593 8.39283 26.9121 10.5393 26.9123V26.9123Z" fill="#6F2E72"/>
<path d="M18.8589 31.1622C18.2163 31.163 17.5906 31.3675 17.0716 31.7462C16.5525 32.1249 16.1668 32.6584 15.97 33.2701H11.7192V29.8354C17.2166 29.3347 21.5442 24.4823 21.5442 18.5935H19.7768C19.7768 23.8398 15.7388 28.1064 10.7763 28.1064C5.81371 28.1064 1.77574 23.8381 1.77574 18.5935H0C0 24.4823 4.32753 29.3314 9.82497 29.8354V33.2701H7.16136C5.62851 33.2718 4.159 33.8818 3.07542 34.966C1.99184 36.0502 1.38275 37.52 1.38187 39.0529V40H11.6908V39.1939H11.7192V35.1643H15.9833C16.1619 35.6929 16.4829 36.1621 16.9109 36.5201C17.3389 36.8781 17.8573 37.1112 18.4092 37.1937C18.961 37.2762 19.525 37.2049 20.0389 36.9877C20.5529 36.7705 20.997 36.4157 21.3225 35.9624C21.6479 35.5091 21.842 34.9749 21.8835 34.4184C21.9249 33.862 21.8121 33.3049 21.5575 32.8084C21.3029 32.3118 20.9162 31.8952 20.4401 31.6042C19.964 31.3131 19.4169 31.1591 18.8589 31.1589V31.1622ZM9.82497 38.1024H3.39293C3.60501 37.2634 4.09067 36.519 4.77314 35.9869C5.45562 35.4548 6.29597 35.1654 7.16136 35.1643H9.82497V38.1024ZM18.8589 35.337C18.6332 35.3372 18.4125 35.2704 18.2248 35.1451C18.0371 35.0198 17.8908 34.8417 17.8043 34.6332C17.7179 34.4247 17.6952 34.1953 17.7392 33.974C17.7832 33.7526 17.8919 33.5493 18.0514 33.3897C18.211 33.2301 18.4143 33.1215 18.6357 33.0775C18.8571 33.0335 19.0865 33.0561 19.295 33.1426C19.5034 33.229 19.6816 33.3754 19.8069 33.5631C19.9321 33.7508 19.9989 33.9715 19.9987 34.1971C19.9983 34.4993 19.8781 34.789 19.6644 35.0027C19.4507 35.2163 19.1611 35.3366 18.8589 35.337V35.337Z" fill="#EACE5D"/>
</svg>
