<svg width="32" height="58" viewBox="0 0 32 58" fill="none" xmlns="http://www.w3.org/2000/svg">
<path d="M15.2819 39.0228H15.9571C19.0699 39.0228 22.0552 37.7863 24.2562 35.5852C26.4573 33.3841 27.6938 30.3988 27.6938 27.2861V23.8364H23.0959V21.5835H27.6938V19.2216H23.0959V16.9699H27.6938V14.608H23.0959V12.355H27.6938V11.7367C27.6938 8.62395 26.4573 5.63867 24.2562 3.43761C22.0552 1.23654 19.0699 0 15.9571 0L15.2819 0C12.1692 0 9.18389 1.23654 6.98283 3.43761C4.78176 5.63867 3.54522 8.62395 3.54522 11.7367V12.355H8.12375V14.608H3.54643V16.9699H8.12375V19.2216H3.54643V21.5835H8.12375V23.8364H3.54643V27.2873C3.54675 30.3996 4.78327 33.3844 6.98404 35.5852C9.1848 37.786 12.1696 39.0225 15.2819 39.0228V39.0228Z" fill="url(#paint0_linear_202637_406)"/>
<path d="M27.3454 45.1852C26.4137 45.1864 25.5064 45.4829 24.7538 46.032C24.0011 46.5812 23.4419 47.3547 23.1564 48.2416H16.9928V43.2613C24.9641 42.5353 31.2391 35.4994 31.2391 26.9606H28.6763C28.6763 34.5677 22.8213 40.7543 15.6256 40.7543C8.42987 40.7543 2.57482 34.5653 2.57482 26.9606H0C0 35.4994 6.27491 42.5305 14.2462 43.2613V48.2416H10.384C8.16134 48.2441 6.03055 49.1285 4.45936 50.7006C2.88817 52.2727 2.00499 54.404 2.00371 56.6267V58H16.9517V56.8312H16.9928V50.9882H23.1758C23.4348 51.7547 23.9002 52.435 24.5208 52.9541C25.1414 53.4733 25.8931 53.8113 26.6933 53.9309C27.4935 54.0505 28.3112 53.9472 29.0565 53.6322C29.8017 53.3172 30.4457 52.8028 30.9176 52.1455C31.3894 51.4883 31.6709 50.7136 31.731 49.9067C31.7911 49.0999 31.6276 48.2921 31.2584 47.5721C30.8891 46.8522 30.3285 46.248 29.6382 45.826C28.9478 45.4041 28.1545 45.1806 27.3454 45.1803V45.1852ZM14.2462 55.2485H4.91975C5.22726 54.032 5.93147 52.9526 6.92106 52.181C7.91065 51.4095 9.12916 50.9898 10.384 50.9882H14.2462V55.2485ZM27.3454 51.2387C27.0181 51.2389 26.6982 51.1421 26.426 50.9604C26.1538 50.7788 25.9416 50.5205 25.8163 50.2182C25.6909 49.9159 25.6581 49.5832 25.7218 49.2623C25.7856 48.9413 25.9432 48.6465 26.1746 48.4151C26.406 48.1837 26.7008 48.0261 27.0218 47.9623C27.3427 47.8985 27.6754 47.9314 27.9777 48.0567C28.28 48.1821 28.5383 48.3943 28.7199 48.6665C28.9016 48.9387 28.9984 49.2586 28.9982 49.5859C28.9975 50.024 28.8232 50.444 28.5134 50.7539C28.2036 51.0637 27.7835 51.238 27.3454 51.2387V51.2387Z" fill="url(#paint1_linear_202637_406)"/>
<defs>
<linearGradient id="paint0_linear_202637_406" x1="6.29911" y1="35.6542" x2="24.9399" y2="3.36856" gradientUnits="userSpaceOnUse">
<stop stop-color="#E8C468"/>
<stop offset="0.5" stop-color="#F5A462"/>
<stop offset="1" stop-color="#E86F51"/>
</linearGradient>
<linearGradient id="paint1_linear_202637_406" x1="1080.86" y1="15218" x2="6342.87" y2="5897.38" gradientUnits="userSpaceOnUse">
<stop stop-color="#E8C468"/>
<stop offset="0.5" stop-color="#F5A462"/>
<stop offset="1" stop-color="#E86F51"/>
</linearGradient>
</defs>
</svg>
