<svg xmlns="http://www.w3.org/2000/svg" viewBox="0 0 496 142.4"><defs><style>.cls-1{font-size:64px;fill:#494d4b;font-family:Lexend-SemiBold, Lexend;font-weight:600;}.cls-2{font-size:36px;letter-spacing:0em;}.cls-3{fill:#6f2e72;}.cls-4{fill:#eace5d;}</style></defs><g id="Camada_2" data-name="Camada 2"><g id="Camada_1-2" data-name="Camada 1"><text class="cls-1" transform="translate(119.45 90.56)">Prisma<tspan class="cls-2" x="223.17" y="0"> </tspan><tspan x="234.22" y="0">Cast</tspan></text><path class="cls-3" d="M37.52,95.81h1.66A28.82,28.82,0,0,0,68,67V58.52H56.7V53H68v-5.8H56.7V41.66H68v-5.8H56.7V30.33H68V28.81A28.82,28.82,0,0,0,39.18,0H37.52A28.82,28.82,0,0,0,8.7,28.81v1.52H19.94v5.53H8.71v5.8H19.94v5.53H8.71V53H19.94v5.53H8.71V67A28.82,28.82,0,0,0,37.52,95.81Z"/><path class="cls-4" d="M67.14,110.93a10.81,10.81,0,0,0-10.29,7.51H41.72V106.21c19.57-1.78,35-19.06,35-40H70.4c0,18.68-14.37,33.87-32,33.87s-32-15.2-32-33.87H0c0,21,15.41,38.23,35,40v12.23H25.49A20.6,20.6,0,0,0,4.92,139v3.38h36.7v-2.87h.1V125.18H56.9a10.8,10.8,0,1,0,19.84-8.39,10.83,10.83,0,0,0-9.6-5.87ZM35,135.64H12.08a13.85,13.85,0,0,1,13.41-10.46H35Zm32.16-9.84a4.06,4.06,0,0,1-4-4.86,4.05,4.05,0,0,1,3.19-3.19,4.19,4.19,0,0,1,2.35.23,4.1,4.1,0,0,1,1.82,1.5,4.07,4.07,0,0,1-.51,5.13,4.09,4.09,0,0,1-2.86,1.19Z"/></g></g></svg>