<svg width="183" height="40" viewBox="0 0 183 40" fill="none" xmlns="http://www.w3.org/2000/svg">
<path d="M10.5393 26.9123H11.0049C13.1517 26.9123 15.2105 26.0595 16.7284 24.5415C18.2464 23.0235 19.0992 20.9647 19.0992 18.818V16.4389H15.9282V14.8852H19.0992V13.2563H15.9282V11.7034H19.0992V10.0745H15.9282V8.52071H19.0992V8.0943C19.0992 5.94755 18.2464 3.88874 16.7284 2.37076C15.2105 0.852789 13.1517 0 11.0049 0L10.5393 0C8.39254 0 6.33372 0.852789 4.81575 2.37076C3.29777 3.88874 2.44498 5.94755 2.44498 8.0943V8.52071H5.60259V10.0745H2.44582V11.7034H5.60259V13.2563H2.44582V14.8852H5.60259V16.4389H2.44582V18.8188C2.44604 20.9653 3.29881 23.0237 4.81658 24.5415C6.33435 26.0593 8.39283 26.9121 10.5393 26.9123V26.9123Z" fill="#6F2E72"/>
<path d="M18.8589 31.1622C18.2163 31.163 17.5906 31.3675 17.0716 31.7462C16.5525 32.1249 16.1668 32.6584 15.97 33.2701H11.7192V29.8354C17.2166 29.3347 21.5442 24.4823 21.5442 18.5935H19.7768C19.7768 23.8398 15.7388 28.1064 10.7763 28.1064C5.81371 28.1064 1.77574 23.8381 1.77574 18.5935H0C0 24.4823 4.32753 29.3314 9.82497 29.8354V33.2701H7.16136C5.62851 33.2718 4.159 33.8818 3.07542 34.966C1.99184 36.0502 1.38275 37.52 1.38187 39.0529V40H11.6908V39.1939H11.7192V35.1643H15.9833C16.1619 35.6929 16.4829 36.1621 16.9109 36.5201C17.3389 36.8781 17.8573 37.1112 18.4092 37.1937C18.961 37.2762 19.525 37.2049 20.0389 36.9877C20.5529 36.7705 20.997 36.4157 21.3225 35.9624C21.6479 35.5091 21.842 34.9749 21.8835 34.4184C21.9249 33.862 21.8121 33.3049 21.5575 32.8084C21.3029 32.3118 20.9162 31.8952 20.4401 31.6042C19.964 31.3131 19.4169 31.1591 18.8589 31.1589V31.1622ZM9.82497 38.1024H3.39293C3.60501 37.2634 4.09067 36.519 4.77314 35.9869C5.45562 35.4548 6.29597 35.1654 7.16136 35.1643H9.82497V38.1024ZM18.8589 35.337C18.6332 35.3372 18.4125 35.2704 18.2248 35.1451C18.0371 35.0198 17.8908 34.8417 17.8043 34.6332C17.7179 34.4247 17.6952 34.1953 17.7392 33.974C17.7832 33.7526 17.8919 33.5493 18.0514 33.3897C18.211 33.2301 18.4143 33.1215 18.6357 33.0775C18.8571 33.0335 19.0865 33.0561 19.295 33.1426C19.5034 33.229 19.6816 33.3754 19.8069 33.5631C19.9321 33.7508 19.9989 33.9715 19.9987 34.1971C19.9983 34.4993 19.8781 34.789 19.6644 35.0027C19.4507 35.2163 19.1611 35.3366 18.8589 35.337V35.337Z" fill="#EACE5D"/>
<path d="M40.112 28V11.2H47.36C48.416 11.2 49.352 11.44 50.168 11.92C51 12.4 51.656 13.056 52.136 13.888C52.632 14.72 52.88 15.656 52.88 16.696C52.88 17.784 52.632 18.76 52.136 19.624C51.656 20.472 51 21.144 50.168 21.64C49.352 22.136 48.416 22.384 47.36 22.384H44.192V28H40.112ZM44.12 18.808H46.784C47.136 18.808 47.456 18.72 47.744 18.544C48.032 18.368 48.264 18.128 48.44 17.824C48.616 17.52 48.704 17.168 48.704 16.768C48.704 16.352 48.616 16 48.44 15.712C48.264 15.424 48.032 15.2 47.744 15.04C47.456 14.88 47.136 14.8 46.784 14.8H44.12V18.808ZM55.5946 28V15.256H59.2426L59.4106 19.408L58.6906 18.616C58.8826 17.928 59.1946 17.312 59.6266 16.768C60.0746 16.224 60.5946 15.792 61.1866 15.472C61.7786 15.152 62.4106 14.992 63.0826 14.992C63.3706 14.992 63.6346 15.016 63.8746 15.064C64.1306 15.112 64.3626 15.168 64.5706 15.232L63.5146 19.48C63.3386 19.368 63.0986 19.28 62.7946 19.216C62.5066 19.136 62.2026 19.096 61.8826 19.096C61.5306 19.096 61.2026 19.16 60.8986 19.288C60.5946 19.4 60.3386 19.568 60.1306 19.792C59.9226 20.016 59.7546 20.28 59.6266 20.584C59.5146 20.888 59.4586 21.232 59.4586 21.616V28H55.5946ZM66.7325 28V15.256H70.5725V28H66.7325ZM68.6525 12.736C67.9325 12.736 67.3645 12.568 66.9485 12.232C66.5485 11.88 66.3485 11.384 66.3485 10.744C66.3485 10.168 66.5565 9.696 66.9725 9.328C67.3885 8.96 67.9485 8.776 68.6525 8.776C69.3725 8.776 69.9325 8.952 70.3325 9.304C70.7325 9.64 70.9325 10.12 70.9325 10.744C70.9325 11.336 70.7245 11.816 70.3085 12.184C69.9085 12.552 69.3565 12.736 68.6525 12.736ZM78.4766 28.24C77.2286 28.24 76.1246 28.04 75.1646 27.64C74.2206 27.24 73.4686 26.704 72.9086 26.032L75.2366 24.016C75.7326 24.512 76.2926 24.88 76.9166 25.12C77.5406 25.344 78.1326 25.456 78.6926 25.456C78.9166 25.456 79.1166 25.432 79.2926 25.384C79.4686 25.336 79.6126 25.272 79.7246 25.192C79.8526 25.096 79.9486 24.992 80.0126 24.88C80.0766 24.752 80.1086 24.608 80.1086 24.448C80.1086 24.128 79.9646 23.88 79.6766 23.704C79.5326 23.624 79.2926 23.528 78.9566 23.416C78.6206 23.304 78.1886 23.176 77.6606 23.032C76.9086 22.84 76.2526 22.616 75.6926 22.36C75.1486 22.088 74.7006 21.776 74.3486 21.424C74.0286 21.088 73.7806 20.72 73.6046 20.32C73.4286 19.904 73.3406 19.44 73.3406 18.928C73.3406 18.336 73.4766 17.8 73.7486 17.32C74.0366 16.84 74.4126 16.424 74.8766 16.072C75.3566 15.72 75.9006 15.456 76.5086 15.28C77.1326 15.088 77.7726 14.992 78.4286 14.992C79.1326 14.992 79.8046 15.072 80.4446 15.232C81.0846 15.392 81.6766 15.616 82.2206 15.904C82.7806 16.192 83.2766 16.536 83.7086 16.936L81.6926 19.192C81.4046 18.92 81.0766 18.68 80.7086 18.472C80.3566 18.248 79.9886 18.072 79.6046 17.944C79.2206 17.816 78.8686 17.752 78.5486 17.752C78.3086 17.752 78.0926 17.776 77.9006 17.824C77.7246 17.856 77.5726 17.92 77.4446 18.016C77.3166 18.096 77.2206 18.2 77.1566 18.328C77.0926 18.44 77.0606 18.576 77.0606 18.736C77.0606 18.896 77.1006 19.048 77.1806 19.192C77.2766 19.336 77.4046 19.456 77.5646 19.552C77.7246 19.648 77.9806 19.76 78.3326 19.888C78.6846 20 79.1646 20.144 79.7726 20.32C80.5246 20.528 81.1726 20.76 81.7166 21.016C82.2606 21.272 82.6926 21.576 83.0126 21.928C83.2686 22.2 83.4606 22.52 83.5886 22.888C83.7166 23.24 83.7806 23.624 83.7806 24.04C83.7806 24.856 83.5486 25.584 83.0846 26.224C82.6366 26.848 82.0126 27.344 81.2126 27.712C80.4126 28.064 79.5006 28.24 78.4766 28.24ZM86.0394 28V15.256H89.6874L89.8074 17.56L89.3034 17.584C89.4954 17.168 89.7354 16.8 90.0234 16.48C90.3274 16.16 90.6634 15.896 91.0314 15.688C91.4154 15.464 91.8074 15.296 92.2074 15.184C92.6234 15.072 93.0394 15.016 93.4554 15.016C94.0794 15.016 94.6474 15.112 95.1594 15.304C95.6714 15.496 96.1194 15.808 96.5034 16.24C96.8874 16.656 97.1914 17.224 97.4154 17.944L96.8154 17.896L97.0074 17.512C97.2154 17.128 97.4794 16.784 97.7994 16.48C98.1354 16.16 98.5034 15.896 98.9034 15.688C99.3034 15.464 99.7194 15.296 100.151 15.184C100.583 15.072 100.999 15.016 101.399 15.016C102.407 15.016 103.247 15.216 103.919 15.616C104.591 16 105.095 16.584 105.431 17.368C105.783 18.152 105.959 19.104 105.959 20.224V28H102.095V20.536C102.095 20.024 102.023 19.6 101.879 19.264C101.735 18.928 101.519 18.68 101.231 18.52C100.959 18.344 100.615 18.256 100.199 18.256C99.8634 18.256 99.5514 18.312 99.2634 18.424C98.9914 18.536 98.7514 18.688 98.5434 18.88C98.3514 19.072 98.1994 19.296 98.0874 19.552C97.9754 19.808 97.9194 20.096 97.9194 20.416V28H94.0554V20.512C94.0554 20.032 93.9834 19.624 93.8394 19.288C93.6954 18.952 93.4794 18.696 93.1914 18.52C92.9034 18.344 92.5674 18.256 92.1834 18.256C91.8474 18.256 91.5354 18.312 91.2474 18.424C90.9754 18.536 90.7354 18.688 90.5274 18.88C90.3354 19.072 90.1834 19.296 90.0714 19.552C89.9594 19.808 89.9034 20.088 89.9034 20.392V28H86.0394ZM113.853 28.216C112.781 28.216 111.821 27.936 110.973 27.376C110.141 26.8 109.477 26.016 108.981 25.024C108.485 24.016 108.237 22.88 108.237 21.616C108.237 20.32 108.485 19.176 108.981 18.184C109.477 17.192 110.157 16.416 111.021 15.856C111.885 15.28 112.869 14.992 113.973 14.992C114.581 14.992 115.133 15.08 115.629 15.256C116.141 15.432 116.589 15.68 116.973 16C117.357 16.304 117.685 16.664 117.957 17.08C118.229 17.48 118.429 17.912 118.557 18.376L117.765 18.28V15.256H121.581V28H117.693V24.928L118.557 24.904C118.429 25.352 118.221 25.776 117.933 26.176C117.645 26.576 117.293 26.928 116.877 27.232C116.461 27.536 115.997 27.776 115.485 27.952C114.973 28.128 114.429 28.216 113.853 28.216ZM114.909 24.976C115.501 24.976 116.013 24.84 116.445 24.568C116.877 24.296 117.213 23.912 117.453 23.416C117.693 22.904 117.813 22.304 117.813 21.616C117.813 20.928 117.693 20.336 117.453 19.84C117.213 19.328 116.877 18.936 116.445 18.664C116.013 18.376 115.501 18.232 114.909 18.232C114.333 18.232 113.829 18.376 113.397 18.664C112.981 18.936 112.653 19.328 112.413 19.84C112.173 20.336 112.053 20.928 112.053 21.616C112.053 22.304 112.173 22.904 112.413 23.416C112.653 23.912 112.981 24.296 113.397 24.568C113.829 24.84 114.333 24.976 114.909 24.976ZM138.135 28.24C136.871 28.24 135.703 28.032 134.631 27.616C133.575 27.184 132.655 26.584 131.871 25.816C131.087 25.032 130.479 24.112 130.047 23.056C129.631 21.984 129.423 20.808 129.423 19.528C129.423 18.28 129.647 17.128 130.095 16.072C130.543 15.016 131.159 14.104 131.943 13.336C132.743 12.552 133.679 11.944 134.751 11.512C135.839 11.08 137.023 10.864 138.303 10.864C139.103 10.864 139.887 10.968 140.655 11.176C141.423 11.384 142.135 11.696 142.791 12.112C143.463 12.512 144.039 12.992 144.519 13.552L142.023 16.408C141.687 16.056 141.327 15.752 140.943 15.496C140.575 15.224 140.167 15.016 139.719 14.872C139.271 14.728 138.791 14.656 138.279 14.656C137.639 14.656 137.031 14.776 136.455 15.016C135.895 15.24 135.399 15.568 134.967 16C134.551 16.416 134.223 16.928 133.983 17.536C133.743 18.144 133.623 18.824 133.623 19.576C133.623 20.312 133.743 20.984 133.983 21.592C134.223 22.184 134.559 22.696 134.991 23.128C135.423 23.56 135.943 23.888 136.551 24.112C137.175 24.336 137.863 24.448 138.615 24.448C139.127 24.448 139.615 24.376 140.079 24.232C140.543 24.088 140.967 23.896 141.351 23.656C141.751 23.4 142.103 23.112 142.407 22.792L144.375 25.912C143.975 26.36 143.439 26.76 142.767 27.112C142.111 27.464 141.375 27.744 140.559 27.952C139.759 28.144 138.951 28.24 138.135 28.24ZM151.463 28.216C150.391 28.216 149.431 27.936 148.583 27.376C147.751 26.8 147.087 26.016 146.591 25.024C146.095 24.016 145.847 22.88 145.847 21.616C145.847 20.32 146.095 19.176 146.591 18.184C147.087 17.192 147.767 16.416 148.631 15.856C149.495 15.28 150.479 14.992 151.583 14.992C152.191 14.992 152.743 15.08 153.239 15.256C153.751 15.432 154.199 15.68 154.583 16C154.967 16.304 155.295 16.664 155.567 17.08C155.839 17.48 156.039 17.912 156.167 18.376L155.375 18.28V15.256H159.191V28H155.303V24.928L156.167 24.904C156.039 25.352 155.831 25.776 155.543 26.176C155.255 26.576 154.903 26.928 154.487 27.232C154.071 27.536 153.607 27.776 153.095 27.952C152.583 28.128 152.039 28.216 151.463 28.216ZM152.519 24.976C153.111 24.976 153.623 24.84 154.055 24.568C154.487 24.296 154.823 23.912 155.063 23.416C155.303 22.904 155.423 22.304 155.423 21.616C155.423 20.928 155.303 20.336 155.063 19.84C154.823 19.328 154.487 18.936 154.055 18.664C153.623 18.376 153.111 18.232 152.519 18.232C151.943 18.232 151.439 18.376 151.007 18.664C150.591 18.936 150.263 19.328 150.023 19.84C149.783 20.336 149.663 20.928 149.663 21.616C149.663 22.304 149.783 22.904 150.023 23.416C150.263 23.912 150.591 24.296 151.007 24.568C151.439 24.84 151.943 24.976 152.519 24.976ZM166.875 28.24C165.627 28.24 164.523 28.04 163.563 27.64C162.619 27.24 161.867 26.704 161.307 26.032L163.635 24.016C164.131 24.512 164.691 24.88 165.315 25.12C165.939 25.344 166.531 25.456 167.091 25.456C167.315 25.456 167.515 25.432 167.691 25.384C167.867 25.336 168.011 25.272 168.123 25.192C168.251 25.096 168.347 24.992 168.411 24.88C168.475 24.752 168.507 24.608 168.507 24.448C168.507 24.128 168.363 23.88 168.075 23.704C167.931 23.624 167.691 23.528 167.355 23.416C167.019 23.304 166.587 23.176 166.059 23.032C165.307 22.84 164.651 22.616 164.091 22.36C163.547 22.088 163.099 21.776 162.747 21.424C162.427 21.088 162.179 20.72 162.003 20.32C161.827 19.904 161.739 19.44 161.739 18.928C161.739 18.336 161.875 17.8 162.147 17.32C162.435 16.84 162.811 16.424 163.275 16.072C163.755 15.72 164.299 15.456 164.907 15.28C165.531 15.088 166.171 14.992 166.827 14.992C167.531 14.992 168.203 15.072 168.843 15.232C169.483 15.392 170.075 15.616 170.619 15.904C171.179 16.192 171.675 16.536 172.107 16.936L170.091 19.192C169.803 18.92 169.475 18.68 169.107 18.472C168.755 18.248 168.387 18.072 168.003 17.944C167.619 17.816 167.267 17.752 166.947 17.752C166.707 17.752 166.491 17.776 166.299 17.824C166.123 17.856 165.971 17.92 165.843 18.016C165.715 18.096 165.619 18.2 165.555 18.328C165.491 18.44 165.459 18.576 165.459 18.736C165.459 18.896 165.499 19.048 165.579 19.192C165.675 19.336 165.803 19.456 165.963 19.552C166.123 19.648 166.379 19.76 166.731 19.888C167.083 20 167.563 20.144 168.171 20.32C168.923 20.528 169.571 20.76 170.115 21.016C170.659 21.272 171.091 21.576 171.411 21.928C171.667 22.2 171.859 22.52 171.987 22.888C172.115 23.24 172.179 23.624 172.179 24.04C172.179 24.856 171.947 25.584 171.483 26.224C171.035 26.848 170.411 27.344 169.611 27.712C168.811 28.064 167.899 28.24 166.875 28.24ZM175.518 28V12.04H179.358V28H175.518ZM173.262 18.616V15.256H181.83V18.616H173.262Z" fill="#494D4B"/>
</svg>
