<svg id="Camada_1" data-name="Camada 1" xmlns="http://www.w3.org/2000/svg" xmlns:xlink="http://www.w3.org/1999/xlink" viewBox="0 0 163 40"><defs><style>.cls-1{fill:url(#Gradiente_sem_nome_4);}.cls-2{fill:url(#Gradiente_sem_nome_4-2);}.cls-3{fill:url(#Gradiente_sem_nome_4-3);}.cls-4{fill:url(#Gradiente_sem_nome_4-4);}.cls-5{fill:url(#Gradiente_sem_nome_4-5);}.cls-6{fill:url(#Gradiente_sem_nome_4-6);}.cls-7{fill:url(#Gradiente_sem_nome_4-7);}.cls-8{fill:url(#Gradiente_sem_nome_4-8);}.cls-9{fill:url(#Gradiente_sem_nome_25);}.cls-10{fill:url(#Gradiente_sem_nome_25-2);}</style><linearGradient id="Gradiente_sem_nome_4" x1="40.93" y1="28.34" x2="50.33" y2="12.06" gradientUnits="userSpaceOnUse"><stop offset="0" stop-color="#e8c468"/><stop offset="0.5" stop-color="#f5a462"/><stop offset="1" stop-color="#e86f51"/></linearGradient><linearGradient id="Gradiente_sem_nome_4-2" x1="59.46" y1="28.45" x2="66.14" y2="16.87" xlink:href="#Gradiente_sem_nome_4"/><linearGradient id="Gradiente_sem_nome_4-3" x1="75.26" y1="29.09" x2="85.23" y2="11.8" xlink:href="#Gradiente_sem_nome_4"/><linearGradient id="Gradiente_sem_nome_4-4" x1="89.91" y1="28.42" x2="96.57" y2="16.88" xlink:href="#Gradiente_sem_nome_4"/><linearGradient id="Gradiente_sem_nome_4-5" x1="103.7" y1="29.09" x2="111.48" y2="15.62" xlink:href="#Gradiente_sem_nome_4"/><linearGradient id="Gradiente_sem_nome_4-6" x1="116.98" y1="28.55" x2="123.72" y2="16.86" xlink:href="#Gradiente_sem_nome_4"/><linearGradient id="Gradiente_sem_nome_4-7" x1="126.7" y1="27.6" x2="134.4" y2="14.26" xlink:href="#Gradiente_sem_nome_4"/><linearGradient id="Gradiente_sem_nome_4-8" x1="135.73" y1="28.13" x2="143.35" y2="14.93" xlink:href="#Gradiente_sem_nome_4"/><linearGradient id="Gradiente_sem_nome_25" x1="13.64" y1="24.42" x2="26.02" y2="2.98" xlink:href="#Gradiente_sem_nome_4"/><linearGradient id="Gradiente_sem_nome_25-2" x1="12.19" y1="40.07" x2="25.97" y2="16.2" xlink:href="#Gradiente_sem_nome_4"/></defs><path class="cls-1" d="M42.08,29V12.2h7.08a5,5,0,0,1,2.66.72,5.08,5.08,0,0,1,1.9,1.92,5.16,5.16,0,0,1,.72,2.71,5.52,5.52,0,0,1-2.62,4.78,5,5,0,0,1-2.66.72H45.53V29Zm3.43-9.1H48.8a1.93,1.93,0,0,0,1.48-.64,2.34,2.34,0,0,0,.63-1.66A2.17,2.17,0,0,0,50.28,16a1.94,1.94,0,0,0-1.48-.65H45.51Z"/><path class="cls-2" d="M62.83,29.24a7,7,0,0,1-3.46-.84A6.29,6.29,0,0,1,57,26.05a6.63,6.63,0,0,1-.87-3.41A6.57,6.57,0,0,1,57,19.26a6,6,0,0,1,2.37-2.33,6.81,6.81,0,0,1,3.46-.87,6.73,6.73,0,0,1,3.41.87,6.1,6.1,0,0,1,2.37,2.33,6.57,6.57,0,0,1,.87,3.38,6.63,6.63,0,0,1-.87,3.41,6.36,6.36,0,0,1-2.37,2.35A6.92,6.92,0,0,1,62.83,29.24Zm0-2.86a3.11,3.11,0,0,0,2.9-1.82,4.5,4.5,0,0,0,0-3.84,3.12,3.12,0,0,0-1.17-1.32,3.29,3.29,0,0,0-4.68,1.32,4.41,4.41,0,0,0,0,3.84,3.31,3.31,0,0,0,1.2,1.34A3.22,3.22,0,0,0,62.83,26.38Z"/><path class="cls-3" d="M77.08,29.24a5.47,5.47,0,0,1-3-.84A6.11,6.11,0,0,1,72,26.05a7.54,7.54,0,0,1-.74-3.39,7.56,7.56,0,0,1,.74-3.4,5.84,5.84,0,0,1,2.09-2.33,5.52,5.52,0,0,1,5.18-.41A4.73,4.73,0,0,1,81,17.7V11.24h3.29V29H81.14l0-1.51a5.06,5.06,0,0,1-1.71,1.25A5.44,5.44,0,0,1,77.08,29.24Zm.72-2.74a3,3,0,0,0,2.38-1.05,4.22,4.22,0,0,0,.91-2.79,4.13,4.13,0,0,0-.91-2.78,3.16,3.16,0,0,0-4.76,0,4.13,4.13,0,0,0-.91,2.78,4.22,4.22,0,0,0,.91,2.79A3,3,0,0,0,77.8,26.5Z"/><path class="cls-4" d="M93.08,29.24a6.23,6.23,0,0,1-3.24-.86A6.33,6.33,0,0,1,87.58,26a7.33,7.33,0,0,1,0-6.74,6.3,6.3,0,0,1,2.26-2.35,6.14,6.14,0,0,1,3.24-.87,7.42,7.42,0,0,1,3.09.63,5.12,5.12,0,0,1,2.21,1.75l-1.8,2.16a4.17,4.17,0,0,0-1.39-1.18,3.66,3.66,0,0,0-1.8-.5,3.34,3.34,0,0,0-1.8.5,3.56,3.56,0,0,0-1.23,1.32,4.21,4.21,0,0,0-.43,1.9,3.87,3.87,0,0,0,.46,1.9,3.58,3.58,0,0,0,1.25,1.34,3.33,3.33,0,0,0,1.77.48A3.74,3.74,0,0,0,95.14,26a5.07,5.07,0,0,0,1.44-1.2l1.8,2.16a5.79,5.79,0,0,1-2.26,1.71A7.65,7.65,0,0,1,93.08,29.24Z"/><path class="cls-5" d="M105.34,29.24a5,5,0,0,1-2.86-.86,6.37,6.37,0,0,1-2-2.36,7.53,7.53,0,0,1-.74-3.38,7.51,7.51,0,0,1,.74-3.41,6,6,0,0,1,2.07-2.33,5.41,5.41,0,0,1,3-.84,4.84,4.84,0,0,1,2.36.56,4.33,4.33,0,0,1,1.6,1.39V16.33h3.27V29h-3.29V27.3a5.31,5.31,0,0,1-1.75,1.39A4.94,4.94,0,0,1,105.34,29.24Zm.89-2.86a3,3,0,0,0,2.37-1,3.94,3.94,0,0,0,.92-2.71,3.94,3.94,0,0,0-.92-2.71,3.22,3.22,0,0,0-4.72,0,4,4,0,0,0-.89,2.71,4,4,0,0,0,.89,2.71A3,3,0,0,0,106.23,26.38Z"/><path class="cls-6" d="M120.4,29.24a7.86,7.86,0,0,1-3.12-.58A5.4,5.4,0,0,1,115.07,27l2.07-1.75a4.31,4.31,0,0,0,1.63,1.15,5.17,5.17,0,0,0,1.85.34,2,2,0,0,0,1.2-.34,1.09,1.09,0,0,0,.45-.93,1,1,0,0,0-.43-.84,8,8,0,0,0-2.06-.72,7.16,7.16,0,0,1-3.44-1.71,3.36,3.36,0,0,1-.88-2.37,3,3,0,0,1,.67-2,4.46,4.46,0,0,1,1.77-1.35,6,6,0,0,1,2.4-.48,7.51,7.51,0,0,1,2.81.53A6.23,6.23,0,0,1,125.32,18L123.54,20a5.74,5.74,0,0,0-1.56-1,3.7,3.7,0,0,0-1.6-.43c-1.16,0-1.73.4-1.73,1.2a1.07,1.07,0,0,0,.53.91,8.14,8.14,0,0,0,2.18.8A6.84,6.84,0,0,1,124.58,23a3.07,3.07,0,0,1,.81,2.23,3.39,3.39,0,0,1-.67,2.07,4.5,4.5,0,0,1-1.78,1.44A6.26,6.26,0,0,1,120.4,29.24Z"/><path class="cls-7" d="M129.12,29V19.28h-2.4v-3h2.4V13.09h3.26v3.24h2.67v3h-2.67V29Z"/><path class="cls-8" d="M137.24,29V16.33h3.17l.05,2.09a5.13,5.13,0,0,1,1.63-1.68,3.9,3.9,0,0,1,2.16-.68,3.84,3.84,0,0,1,.79.08,3,3,0,0,1,.65.14l-.89,3.6a2.36,2.36,0,0,0-.67-.24,3.74,3.74,0,0,0-.81-.1,2.75,2.75,0,0,0-2.79,2.84V29Z"/><path class="cls-9" d="M19.61,26.66h.45a7.8,7.8,0,0,0,7.79-7.8V16.57H24.8V15.08h3.05V13.51H24.8V12h3.05V10.44H24.8V9h3.05V8.53A7.79,7.79,0,0,0,20.06.74h-.45a7.8,7.8,0,0,0-7.8,7.79V9h3v1.49h-3V12h3v1.5h-3v1.57h3v1.49h-3v2.29A7.8,7.8,0,0,0,19.61,26.66Z"/><path class="cls-10" d="M27.62,30.75a2.93,2.93,0,0,0-2.78,2h-4.1V29.47a10.69,10.69,0,0,0,9.47-10.82H28.5a8.94,8.94,0,0,1-8.67,9.16,8.94,8.94,0,0,1-8.67-9.16H9.46a10.68,10.68,0,0,0,9.46,10.82v3.31H16.35a5.57,5.57,0,0,0-5.56,5.57v.91h9.93v-.78h0V34.61h4.11a2.92,2.92,0,1,0,2.77-3.86Zm-8.7,6.69h-6.2a3.75,3.75,0,0,1,3.63-2.83h2.57Zm8.7-2.67a1.1,1.1,0,1,1,1.1-1.1A1.1,1.1,0,0,1,27.62,34.77Z"/></svg>