<svg width="30" height="23" viewBox="0 0 30 23" fill="none" xmlns="http://www.w3.org/2000/svg">
<path d="M19.708 15.0347H18.624C18.3267 15.0347 18.0547 15.2027 17.9227 15.468L16.9213 17.4707C16.7773 17.76 16.364 17.76 16.22 17.4707L13.7707 12.5707C13.628 12.2867 13.2253 12.28 13.0747 12.56L11.96 14.6227C11.8227 14.876 11.5573 15.0347 11.2693 15.0347H10.292" stroke="white" stroke-width="2" stroke-linecap="round" stroke-linejoin="round"/>
<path d="M5.55862 12H4.33462C2.62529 12 1.35729 13.5867 1.73329 15.2533L2.63595 19.2533C2.91062 20.4693 3.99062 21.3333 5.23729 21.3333H6.83195C7.25995 21.3333 7.57595 20.9373 7.48262 20.52L5.75995 12.892C4.42262 6.968 8.92662 1.33333 15 1.33333V1.33333V1.33333C21.0733 1.33333 25.5773 6.968 24.24 12.892L22.5186 20.52C22.424 20.9373 22.7413 21.3333 23.168 21.3333H24.7626C26.0093 21.3333 27.0893 20.4693 27.364 19.2533L28.2666 15.2533C28.6426 13.5867 27.3746 12 25.6653 12H24.4413" stroke="#EACE5D" stroke-width="2" stroke-linecap="round" stroke-linejoin="round"/>
</svg>
